<svg width="34" height="34" viewBox="0 0 34 34" fill="none" xmlns="http://www.w3.org/2000/svg">
<path d="M34 17C34 26.3888 26.3888 34 17 34C7.61116 34 0 26.3888 0 17C0 7.61116 7.61116 0 17 0C26.3888 0 34 7.61116 34 17Z" fill="#16A34A"/>
<path d="M22.9625 23.75C21.4 23.75 19.8563 23.4094 18.3313 22.7281C16.8063 22.0469 15.4188 21.0813 14.1688 19.8313C12.9188 18.5813 11.9531 17.1938 11.2719 15.6688C10.5906 14.1438 10.25 12.6 10.25 11.0375C10.25 10.8125 10.325 10.625 10.475 10.475C10.625 10.325 10.8125 10.25 11.0375 10.25H14.075C14.25 10.25 14.4062 10.3094 14.5438 10.4281C14.6813 10.5469 14.7625 10.6875 14.7875 10.85L15.275 13.475C15.3 13.675 15.2938 13.8438 15.2563 13.9813C15.2188 14.1188 15.15 14.2375 15.05 14.3375L13.2313 16.175C13.4813 16.6375 13.7781 17.0844 14.1219 17.5156C14.4656 17.9469 14.8438 18.3625 15.2563 18.7625C15.6438 19.15 16.05 19.5094 16.475 19.8406C16.9 20.1719 17.35 20.475 17.825 20.75L19.5875 18.9875C19.7 18.875 19.8469 18.7906 20.0281 18.7344C20.2094 18.6781 20.3875 18.6625 20.5625 18.6875L23.15 19.2125C23.325 19.2625 23.4688 19.3531 23.5813 19.4844C23.6938 19.6156 23.75 19.7625 23.75 19.925V22.9625C23.75 23.1875 23.675 23.375 23.525 23.525C23.375 23.675 23.1875 23.75 22.9625 23.75ZM12.5188 14.75L13.7563 13.5125L13.4375 11.75H11.7688C11.8313 12.2625 11.9188 12.7688 12.0313 13.2688C12.1438 13.7688 12.3063 14.2625 12.5188 14.75ZM19.2313 21.4625C19.7188 21.675 20.2156 21.8438 20.7219 21.9688C21.2281 22.0938 21.7375 22.175 22.25 22.2125V20.5625L20.4875 20.2063L19.2313 21.4625Z" fill="white"/>
</svg>
