<svg width="195" height="191" viewBox="0 0 195 191" fill="none" xmlns="http://www.w3.org/2000/svg">
<path fill-rule="evenodd" clip-rule="evenodd" d="M29.5492 0C32.6441 0 35.3411 1.73823 36.7532 4.30987C37.6925 3.9306 38.7166 3.72218 39.7882 3.72218C43.7815 3.72218 47.1123 6.61597 47.8752 10.4599C49.1857 11.7573 50 13.5733 50 15.5834C50 19.5261 46.8667 22.7223 43.0015 22.7223C41.7547 22.7223 40.5841 22.3897 39.5703 21.8068C38.1041 23.1693 36.1547 24 34.0151 24C31.3806 24 29.0346 22.7405 27.524 20.7798C26.0941 21.9928 24.2562 22.7223 22.2511 22.7223C17.6942 22.7223 14 18.954 14 14.3055C14 9.85634 17.3844 6.21342 21.6703 5.9094C22.7164 2.48551 25.8482 0 29.5492 0Z" fill="#E0EAFF"/>
<path d="M19.101 166.512H15.732V186.924H19.101V166.512Z" fill="#935C1D"/>
<path d="M17.416 169.428H15.732V186.924H17.416V169.428Z" fill="#5E3C17"/>
<path d="M32.774 159.125C32.774 167.607 25.898 174.482 17.417 174.482C8.936 174.482 2.06 167.606 2.06 159.125C2.06 150.644 8.936 130.938 17.417 130.938C25.898 130.938 32.774 150.643 32.774 159.125Z" fill="#4AAA69"/>
<path d="M17.416 130.937C9.73602 130.937 3.37301 147.093 2.23901 156.444C3.38001 162.737 8.33301 167.473 14.271 167.473C21.053 167.473 26.551 161.296 26.551 153.676C26.551 147.932 23.426 136.461 18.983 131.16C18.468 131.014 17.945 130.937 17.416 130.937Z" fill="#58C677"/>
<path d="M183.843 172.656H181.488V186.924H183.843V172.656Z" fill="#935C1D"/>
<path d="M182.665 174.694H181.488V186.923H182.665V174.694Z" fill="#5E3C17"/>
<path d="M193.4 167.492C193.4 173.421 188.594 178.227 182.665 178.227C176.736 178.227 171.93 173.421 171.93 167.492C171.93 161.563 176.736 147.789 182.665 147.789C188.594 147.789 193.4 161.564 193.4 167.492Z" fill="#4AAA69"/>
<path d="M182.665 147.789C177.297 147.789 172.849 159.082 172.056 165.618C172.853 170.017 176.316 173.328 180.467 173.328C185.208 173.328 189.051 169.01 189.051 163.684C189.051 159.669 186.867 151.651 183.761 147.945C183.4 147.843 183.035 147.789 182.665 147.789Z" fill="#58C677"/>
<path d="M173.234 172.656H170.879V186.924H173.234V172.656Z" fill="#935C1D"/>
<path d="M172.056 174.694H170.879V186.923H172.056V174.694Z" fill="#5E3C17"/>
<path d="M182.791 167.492C182.791 173.421 177.985 178.227 172.056 178.227C166.127 178.227 161.321 173.421 161.321 167.492C161.321 161.563 166.127 147.789 172.056 147.789C177.985 147.789 182.791 161.564 182.791 167.492Z" fill="#4AAA69"/>
<path d="M172.056 147.789C166.688 147.789 162.24 159.082 161.447 165.618C162.244 170.017 165.707 173.328 169.858 173.328C174.599 173.328 178.442 169.01 178.442 163.684C178.442 159.669 176.258 151.651 173.152 147.945C172.792 147.843 172.426 147.789 172.056 147.789Z" fill="#58C677"/>
<path d="M165.127 119.126H86.973V175.918H165.127V119.126Z" fill="#EDE6D0"/>
<path d="M84.629 175.918H143.504V84.478L84.629 63.898V175.918Z" fill="#EDE6D0"/>
<path d="M63.267 63.539L143.504 92.456V86.898L63.267 57.981V63.539Z" fill="#C4C0AF"/>
<path d="M94.267 65.721H86.973V175.918H94.267V65.721Z" fill="#C4C0AF"/>
<path d="M73.948 62.277L154.185 91.194V85.637L73.948 56.72V62.277Z" fill="#768EB0"/>
<path d="M73.948 62.277L154.185 91.194V88.69L73.948 59.773V62.277Z" fill="#384557"/>
<path d="M103.385 85.638H86.973V117.273H103.385V85.638Z" fill="#AB732D"/>
<path d="M94.137 85.638H86.973V117.273H94.137V85.638Z" fill="#935C1D"/>
<path d="M102.404 103.128C102.404 103.596 102.025 103.975 101.557 103.975C101.089 103.975 100.71 103.596 100.71 103.128C100.71 102.66 101.089 102.281 101.557 102.281C102.025 102.281 102.404 102.66 102.404 103.128Z" fill="#492D00"/>
<path d="M86.973 175.918H28.097V70.758L86.973 50.177V175.918Z" fill="#EDE6D0"/>
<path d="M97.654 48.557L17.416 77.474V71.916L97.654 43V48.557Z" fill="#768EB0"/>
<path d="M97.654 48.557L17.416 77.474V75.265L97.654 46.348V48.557Z" fill="#384557"/>
<path d="M28.097 79.109L86.973 57.891V52.333L28.097 73.551V79.109Z" fill="#C4C0AF"/>
<path d="M171.726 117.274H86.973V120.979H171.726V117.274Z" fill="#384557"/>
<path d="M171.726 119.908H86.973V120.979H171.726V119.908Z" fill="#768EB0"/>
<path d="M169.815 104.959H86.973V117.274H169.815V104.959Z" fill="#C3D9F4"/>
<path d="M169.815 104.959H86.973V106.104H169.815V104.959Z" fill="#DCEEFF"/>
<path d="M97.677 117.274H105.706L110.694 104.959H102.665L97.677 117.274Z" fill="#DCEEFF"/>
<path d="M133.19 117.274H141.22L146.207 104.959H138.178L133.19 117.274Z" fill="#DCEEFF"/>
<path d="M113.625 117.274H116.202L121.19 104.959H118.612L113.625 117.274Z" fill="#DCEEFF"/>
<path d="M160.139 117.274H162.716L167.704 104.959H165.127L160.139 117.274Z" fill="#DCEEFF"/>
<path d="M103.314 117.274H104.832L109.819 104.959H108.302L103.314 117.274Z" fill="#F3FAFF"/>
<path d="M146.238 117.274H147.756L152.743 104.959H151.226L146.238 117.274Z" fill="#F3FAFF"/>
<path d="M107.815 104.959H106.486V119.246H107.815V104.959Z" fill="#384557"/>
<path d="M128.653 104.959H127.324V119.246H128.653V104.959Z" fill="#384557"/>
<path d="M149.491 104.959H148.162V119.246H149.491V104.959Z" fill="#384557"/>
<path d="M170.329 104.959H169V119.246H170.329V104.959Z" fill="#384557"/>
<path d="M52.052 83.63H25.411V117.124H52.052V83.63Z" fill="#C3D9F4"/>
<mask id="mask0_19_40" style="mask-type:luminance" maskUnits="userSpaceOnUse" x="25" y="83" width="28" height="35">
<path d="M52.052 83.63H25.411V117.124H52.052V83.63Z" fill="white"/>
</mask>
<g mask="url(#mask0_19_40)">
<path d="M20.315 117.124H28.344L41.962 83.63H33.933L20.315 117.124Z" fill="#DCEEFF"/>
<path d="M36.365 117.124H38.943L52.458 83.63H49.881L36.365 117.124Z" fill="#DCEEFF"/>
<path d="M25.944 117.124H27.461L41.088 83.63H39.57L25.944 117.124Z" fill="#F3FAFF"/>
<path d="M41.088 117.124H41.814L55.44 83.63H54.714L41.088 117.124Z" fill="#F3FAFF"/>
</g>
<path d="M23.775 81.628V83.63H52.052V117.124H23.775V119.126H54.194V81.628H23.775Z" fill="#384557"/>
<path d="M165.127 120.979H157.264V175.918H165.127V120.979Z" fill="#384557"/>
<path d="M157.264 120.979H86.973V126.289H157.264V120.979Z" fill="#C4C0AF"/>
<path d="M47.149 140.075H36.027V168.75H47.149V140.075Z" fill="#C3D9F4"/>
<path d="M47.591 169.193H35.584V139.632H47.592L47.591 169.193ZM36.47 168.307H46.706V140.518H36.47V168.307Z" fill="#384557"/>
<mask id="mask1_19_40" style="mask-type:luminance" maskUnits="userSpaceOnUse" x="36" y="140" width="11" height="29">
<path d="M46.706 140.518H36.47V168.307H46.706V140.518Z" fill="white"/>
</mask>
<g mask="url(#mask1_19_40)">
<path d="M28.323 168.366H34.998L46.321 140.518H39.645L28.323 168.366Z" fill="#DCEEFF"/>
<path d="M38.493 168.366H40.636L51.873 140.518H49.73L38.493 168.366Z" fill="#DCEEFF"/>
<path d="M33.003 168.366H34.264L45.594 140.518H44.332L33.003 168.366Z" fill="#F3FAFF"/>
<path d="M42.419 168.366H43.023L54.352 140.518H53.748L42.419 168.366Z" fill="#F3FAFF"/>
</g>
<path d="M63.982 140.075H52.86V168.75H63.982V140.075Z" fill="#C3D9F4"/>
<path d="M64.425 169.193H52.417V139.632H64.425V169.193ZM53.303 168.307H63.539V140.518H53.303V168.307Z" fill="#384557"/>
<mask id="mask2_19_40" style="mask-type:luminance" maskUnits="userSpaceOnUse" x="53" y="140" width="11" height="29">
<path d="M63.539 140.518H53.303V168.307H63.539V140.518Z" fill="white"/>
</mask>
<g mask="url(#mask2_19_40)">
<path d="M45.156 168.366H51.832L63.155 140.518H56.479L45.156 168.366Z" fill="#DCEEFF"/>
<path d="M55.327 168.366H57.469L68.706 140.518H66.564L55.327 168.366Z" fill="#DCEEFF"/>
<path d="M49.837 168.366H51.098L62.427 140.518H61.166L49.837 168.366Z" fill="#F3FAFF"/>
<path d="M59.253 168.366H59.857L71.186 140.518H70.582L59.253 168.366Z" fill="#F3FAFF"/>
</g>
<path d="M80.815 140.075H69.694V168.75H80.815V140.075Z" fill="#C3D9F4"/>
<path d="M81.259 169.193H69.251V139.632H81.259V169.193ZM70.137 168.307H80.373V140.518H70.137V168.307Z" fill="#384557"/>
<mask id="mask3_19_40" style="mask-type:luminance" maskUnits="userSpaceOnUse" x="70" y="140" width="11" height="29">
<path d="M80.373 140.518H70.137V168.307H80.373V140.518Z" fill="white"/>
</mask>
<g mask="url(#mask3_19_40)">
<path d="M61.99 168.366H68.666L79.988 140.518H73.312L61.99 168.366Z" fill="#DCEEFF"/>
<path d="M72.16 168.366H74.303L85.54 140.518H83.397L72.16 168.366Z" fill="#DCEEFF"/>
<path d="M66.67 168.366H67.932L79.261 140.518H78L66.67 168.366Z" fill="#F3FAFF"/>
<path d="M76.086 168.366H76.69L88.02 140.518H87.416L76.086 168.366Z" fill="#F3FAFF"/>
</g>
<path d="M105.832 140.075H94.71V168.75H105.832V140.075Z" fill="#C3D9F4"/>
<path d="M106.275 169.193H94.267V139.632H106.275V169.193ZM95.154 168.307H105.39V140.518H95.154V168.307Z" fill="#384557"/>
<mask id="mask4_19_40" style="mask-type:luminance" maskUnits="userSpaceOnUse" x="95" y="140" width="11" height="29">
<path d="M105.39 140.518H95.154V168.307H105.39V140.518Z" fill="white"/>
</mask>
<g mask="url(#mask4_19_40)">
<path d="M87.007 168.366H93.682L105.005 140.518H98.329L87.007 168.366Z" fill="#DCEEFF"/>
<path d="M97.1769 168.366H99.3189L110.557 140.518H108.414L97.1769 168.366Z" fill="#DCEEFF"/>
<path d="M91.687 168.366H92.9479L104.278 140.518H103.016L91.687 168.366Z" fill="#F3FAFF"/>
<path d="M101.103 168.366H101.707L113.036 140.518H112.432L101.103 168.366Z" fill="#F3FAFF"/>
</g>
<path d="M157.663 140.075H146.541V168.75H157.663V140.075Z" fill="#C3D9F4"/>
<path d="M158.106 169.193H146.098V139.632H158.106V169.193ZM146.984 168.307H157.22V140.518H146.984V168.307Z" fill="#384557"/>
<mask id="mask5_19_40" style="mask-type:luminance" maskUnits="userSpaceOnUse" x="146" y="140" width="12" height="29">
<path d="M157.22 140.518H146.984V168.307H157.22V140.518Z" fill="white"/>
</mask>
<g mask="url(#mask5_19_40)">
<path d="M138.837 168.366H145.513L156.835 140.518H150.159L138.837 168.366Z" fill="#DCEEFF"/>
<path d="M149.007 168.366H151.15L162.387 140.518H160.244L149.007 168.366Z" fill="#DCEEFF"/>
<path d="M143.517 168.366H144.779L156.108 140.518H154.847L143.517 168.366Z" fill="#F3FAFF"/>
<path d="M152.933 168.366H153.537L164.867 140.518H164.263L152.933 168.366Z" fill="#F3FAFF"/>
</g>
<path d="M167.704 175.918H25.411V178.718H167.704V175.918Z" fill="#384557"/>
<path d="M126.679 140.075H111.82V175.918H126.679V140.075Z" fill="#AB732D"/>
<path d="M141.538 140.075H126.679V175.918H141.538V140.075Z" fill="#935C1D"/>
<path d="M139.905 142.091H126.679V146.521H139.905V142.091Z" fill="#7E5126"/>
<path d="M126.679 142.091H113.453V146.521H126.679V142.091Z" fill="#9C6A2E"/>
<path d="M139.905 148.109H126.679V152.539H139.905V148.109Z" fill="#7E5126"/>
<path d="M126.679 148.109H113.453V152.539H126.679V148.109Z" fill="#9C6A2E"/>
<path d="M139.905 154.126H126.679V158.556H139.905V154.126Z" fill="#7E5126"/>
<path d="M126.679 154.126H113.453V158.556H126.679V154.126Z" fill="#9C6A2E"/>
<path d="M139.905 160.143H126.679V164.573H139.905V160.143Z" fill="#7E5126"/>
<path d="M126.679 160.143H113.453V164.573H126.679V160.143Z" fill="#9C6A2E"/>
<path d="M139.905 166.161H126.679V170.591H139.905V166.161Z" fill="#7E5126"/>
<path d="M126.679 166.161H113.453V170.591H126.679V166.161Z" fill="#9C6A2E"/>
<path d="M124.925 159.89C124.925 160.42 124.495 160.85 123.965 160.85C123.435 160.85 123.005 160.42 123.005 159.89C123.005 159.36 123.435 158.93 123.965 158.93C124.495 158.93 124.925 159.36 124.925 159.89Z" fill="#492D00"/>
<path d="M130.352 159.89C130.352 160.42 129.922 160.85 129.392 160.85C128.862 160.85 128.432 160.42 128.432 159.89C128.432 159.36 128.862 158.93 129.392 158.93C129.922 158.93 130.352 159.36 130.352 159.89Z" fill="#492D00"/>
<path d="M183.235 184.432C179.436 180.889 172.556 178.717 165.127 178.717H25.805C18.376 178.717 11.496 180.888 7.69699 184.432L5.03699 186.913H185.894L183.235 184.432Z" fill="#48C234"/>
<path d="M194.919 190.457H0C0 188.5 1.587 186.913 3.544 186.913H191.374C193.332 186.913 194.919 188.5 194.919 190.457Z" fill="#2E9822"/>
<path d="M126.679 140.075H126.366V175.944H126.679V140.075Z" fill="#492D00"/>
<path fill-rule="evenodd" clip-rule="evenodd" d="M187.155 23.0593C187.731 20.7435 187.746 18.2527 187.087 15.7837C185.014 8.02471 177.064 3.42018 169.329 5.4992C164.942 6.67838 161.567 9.75437 159.845 13.6119C156.855 11.7813 153.153 11.1349 149.502 12.1161C144.668 13.4155 141.177 17.233 140.055 21.7849C138.989 21.8026 137.909 21.9504 136.833 22.2397C129.758 24.1413 125.56 31.4361 127.455 38.5332C129.351 45.6301 136.623 49.8417 143.697 47.9401C146.046 47.3089 148.077 46.0836 149.674 44.4686C152.915 47.7344 157.759 49.2184 162.515 47.9401C165.18 47.2238 167.437 45.7421 169.114 43.7937C172.412 48.6445 178.518 51.1179 184.492 49.512C192.053 47.4798 196.539 39.6842 194.514 32.0999C193.421 28.0085 190.656 24.8145 187.155 23.0593Z" fill="#E0EAFF"/>
</svg>
