<svg width="344" height="348" viewBox="0 0 344 348" fill="none" xmlns="http://www.w3.org/2000/svg">
<path fill-rule="evenodd" clip-rule="evenodd" d="M185.954 0.284123C230.182 2.99178 267.735 29.9991 297.523 62.8481C325.678 93.8964 344.219 132.632 343.998 174.571C343.778 216.294 324.443 254.306 296.352 285.121C266.687 317.66 229.927 346.425 185.954 347.933C140.811 349.482 100.78 323.789 67.7258 292.962C33.1834 260.747 1.5861 221.814 0.066291 174.571C-1.49073 126.17 24.5543 81.3956 59.8551 48.2979C93.9802 16.3026 139.293 -2.57251 185.954 0.284123Z" fill="#10D624" fill-opacity="0.28"/>
<g clip-path="url(#clip0_26_511)">
<path d="M250.817 81.3596C250.817 101.987 218.561 162.819 200.066 196.002C198.812 198.253 196.979 200.129 194.756 201.435C192.533 202.741 190.002 203.429 187.424 203.429C184.846 203.429 182.314 202.741 180.091 201.435C177.869 200.129 176.035 198.253 174.781 196.002C156.287 162.819 124.031 101.987 124.031 81.3596C124.031 52.4422 152.413 29 187.424 29C222.435 29 250.817 52.4422 250.817 81.3596Z" fill="#16A34A"/>
<path d="M187.721 115.274C206.788 115.274 222.245 99.8238 222.245 80.7646C222.245 61.7054 206.788 46.2549 187.721 46.2549C168.654 46.2549 153.198 61.7054 153.198 80.7646C153.198 99.8238 168.654 115.274 187.721 115.274Z" fill="white"/>
<path d="M43.6558 111.99C55.0761 111.99 64.3341 102.735 64.3341 91.3196C64.3341 79.9039 55.0761 70.6497 43.6558 70.6497C32.2354 70.6497 22.9774 79.9039 22.9774 91.3196C22.9774 102.735 32.2354 111.99 43.6558 111.99Z" fill="#FF6584"/>
<path d="M187.424 244C215.068 244 237.479 242.271 237.479 240.138C237.479 238.004 215.068 236.275 187.424 236.275C159.779 236.275 137.369 238.004 137.369 240.138C137.369 242.271 159.779 244 187.424 244Z" fill="#16A34A"/>
<path opacity="0.4" d="M39.4454 109.701C40.4979 103.218 36.0936 97.1103 29.6082 96.0583C23.1229 95.0063 17.0123 99.4088 15.9599 105.891C14.9075 112.374 19.3117 118.482 25.7971 119.534C32.2824 120.586 38.393 116.184 39.4454 109.701Z" fill="#16A34A"/>
<path d="M306.03 169.139C212.345 134.035 98.0834 168.259 32.1132 238.266C31.7382 238.659 31.3632 239.057 31.0001 239.456H29.9942C30.3394 239.057 30.6965 238.659 31.0477 238.266C98.387 162.933 211.131 132.91 306.03 169.139Z" fill="#3F3D56"/>
<path d="M331.631 180.783C323.35 176.369 314.799 172.48 306.03 169.139C314.822 172.425 323.377 176.315 331.631 180.783Z" fill="#3F3D56"/>
<path opacity="0.4" d="M280.357 145.759C287.563 145.759 293.405 139.92 293.405 132.717C293.405 125.514 287.563 119.674 280.357 119.674C273.151 119.674 267.31 125.514 267.31 132.717C267.31 139.92 273.151 145.759 280.357 145.759Z" fill="#16A34A"/>
<path d="M281.81 233.036C282.819 236.762 286.272 239.07 286.272 239.07C286.272 239.07 288.091 235.337 287.083 231.611C286.074 227.885 282.621 225.577 282.621 225.577C282.621 225.577 280.802 229.311 281.81 233.036Z" fill="#3F3D56"/>
<path d="M283.292 232.236C286.059 234.928 286.397 239.067 286.397 239.067C286.397 239.067 282.249 238.84 279.482 236.148C276.715 233.456 276.377 229.317 276.377 229.317C276.377 229.317 280.525 229.543 283.292 232.236Z" fill="#16A34A"/>
<path d="M3.99998 181.233V186.98L3.71426 187.29V181.173C3.8095 181.191 3.90476 181.215 3.99998 181.233Z" fill="#3F3D56"/>
<path d="M22.3214 238.263C22.2381 238.4 22.1488 238.537 22.0595 238.674H3.71428V181.518L4 181.233L6.43452 184V179.954H14.1726V192.794L21.9881 201.665L22.0595 201.748C22.1548 202.046 22.244 202.343 22.3333 202.641C22.3339 202.645 22.336 202.649 22.3393 202.653C23.5114 206.402 24.4732 210.214 25.2202 214.071C26.9226 223.168 26.6667 231.51 22.3214 238.263Z" fill="#CCCCCC"/>
<path d="M10.1557 212.826H5.23042V216.928H10.1557V212.826Z" fill="#3F3D56"/>
<path d="M10.1557 220.21H5.23042V224.313H10.1557V220.21Z" fill="#3F3D56"/>
<path d="M161.874 205.03L159.411 200.928L182.396 181.235C199.388 173.059 219.871 175.418 241.499 181.235V186.978L220.156 209.954L195.53 214.877L161.874 205.03Z" fill="#3F3D56"/>
<path d="M251.673 192.791C255.755 188.253 256.322 183.938 251.673 179.953H243.935V184.001L241.499 181.235L221.798 200.928L218.514 204.21L214.41 220.621L221.798 238.673H259.558V201.748L251.673 192.791Z" fill="#CCCCCC"/>
<path d="M159.411 200.928H221.798V238.673H159.411C151.864 230.51 155.785 215.633 159.411 200.928Z" fill="#F2F2F2"/>
<path d="M213.179 212.826H200.045V224.313H213.179V212.826Z" fill="#3F3D56"/>
<path d="M194.709 212.415H183.217V238.673H194.709V212.415Z" fill="#CCCCCC"/>
<path d="M170.083 216.518V212.416H165.158V216.518H169.672H170.083Z" fill="#3F3D56"/>
<path d="M169.672 219.8H165.158V223.903H170.083V219.8H169.672Z" fill="#3F3D56"/>
<path d="M178.291 212.415H173.366V216.518H178.291V212.415Z" fill="#3F3D56"/>
<path d="M178.291 219.8H173.366V223.903H178.291V219.8Z" fill="#3F3D56"/>
<path d="M239.447 216.929V212.826H234.521V216.929H239.036H239.447Z" fill="#3F3D56"/>
<path d="M239.036 220.211H234.521V224.313H239.447V220.211H239.036Z" fill="#3F3D56"/>
<path d="M247.656 212.826H242.73V216.928H247.656V212.826Z" fill="#3F3D56"/>
<path d="M247.656 220.21H242.73V224.313H247.656V220.21Z" fill="#3F3D56"/>
<path d="M50.7893 136.105L46.6851 132.823L69.6696 112.309H127.952V130.361L90.1916 155.798L50.7893 136.105Z" fill="#3F3D56"/>
<path d="M138.578 123.816V112.719H130.84V115.437L127.952 112.309L109.071 132.822L101.684 137.746L90.2285 221.404L107.504 238.673H147.653C153.805 207.74 158.683 175.963 147.653 133.643L138.578 123.816Z" fill="#CCCCCC"/>
<path d="M46.6848 132.823H109.072V238.673H46.6848C39.8579 197.551 36.5237 159.416 46.6848 132.823Z" fill="#F2F2F2"/>
<path d="M82.393 212.826H70.9007V238.673H82.393V212.826Z" fill="#CCCCCC"/>
<path d="M58.5875 220.211V216.108H53.6625V220.211H58.1774H58.5875Z" fill="#3F3D56"/>
<path d="M58.1774 223.493H53.6625V227.596H58.5875V223.493H58.1774Z" fill="#3F3D56"/>
<path d="M66.7963 216.108H61.871V220.211H66.7963V216.108Z" fill="#3F3D56"/>
<path d="M91.8333 223.493H87.3184V227.596H92.2434V223.493H91.8333Z" fill="#3F3D56"/>
<path d="M100.452 216.108H95.527V220.211H100.452V216.108Z" fill="#3F3D56"/>
<path d="M100.452 223.493H95.527V227.595H100.452V223.493Z" fill="#3F3D56"/>
<path d="M126.72 138.156V134.054H121.795V138.156H126.31H126.72Z" fill="#3F3D56"/>
<path d="M126.31 141.439H121.795V145.541H126.72V141.439H126.31Z" fill="#3F3D56"/>
<path d="M134.929 134.053H130.004V138.156H134.929V134.053Z" fill="#3F3D56"/>
<path d="M134.929 141.438H130.004V145.541H134.929V141.438Z" fill="#3F3D56"/>
<path d="M126.72 161.132V157.029H121.795V161.132H126.31H126.72Z" fill="#3F3D56"/>
<path d="M126.31 164.414H121.795V168.516H126.72V164.414H126.31Z" fill="#3F3D56"/>
<path d="M134.929 157.029H130.004V161.131H134.929V157.029Z" fill="#3F3D56"/>
<path d="M134.929 164.413H130.004V168.516H134.929V164.413Z" fill="#3F3D56"/>
<path d="M126.72 184.107V180.004H121.795V184.107H126.31H126.72Z" fill="#3F3D56"/>
<path d="M126.31 187.389H121.795V191.491H126.72V187.389H126.31Z" fill="#3F3D56"/>
<path d="M134.929 180.004H130.004V184.107H134.929V180.004Z" fill="#3F3D56"/>
<path d="M134.929 187.389H130.004V191.491H134.929V187.389Z" fill="#3F3D56"/>
<path d="M126.72 207.082V202.979H121.795V207.082H126.31H126.72Z" fill="#3F3D56"/>
<path d="M126.31 210.364H121.795V214.467H126.72V210.364H126.31Z" fill="#3F3D56"/>
<path d="M134.929 202.979H130.004V207.082H134.929V202.979Z" fill="#3F3D56"/>
<path d="M134.929 210.364H130.004V214.467H134.929V210.364Z" fill="#3F3D56"/>
<path d="M53.6622 138.156H101.273V148.003C86.0124 143.793 70.0984 144.095 53.6622 148.003V138.156Z" fill="#3F3D56"/>
<path d="M53.6622 157.849C68.5221 162.225 84.3924 162.225 101.273 157.849V167.696H53.6622V157.849Z" fill="#3F3D56"/>
<path d="M53.6622 177.542H101.273V187.389C85.0475 182.21 69.1604 181.966 53.6622 187.389V177.542Z" fill="#3F3D56"/>
<path d="M53.6622 197.235C69.1896 203.217 85.0742 202.968 101.273 197.235V207.082H53.6622V197.235Z" fill="#3F3D56"/>
<path d="M309.548 180.129H343V196.241L340.012 197.176L330.071 200.277L314.476 196.666L298.899 193.057L290.673 191.152L286.565 189.634C289.982 184.947 296.196 181.262 309.548 180.129Z" fill="#3F3D56"/>
<path d="M343 189.634V238.674H286.565C286.548 238.643 286.536 238.616 286.518 238.585V238.583C286.504 238.548 286.488 238.515 286.47 238.483C285.589 236.711 284.8 234.943 284.101 233.18C278.179 218.258 278.821 203.731 286.565 189.634H343Z" fill="#F2F2F2"/>
<path d="M322.274 212.826H310.782V238.673H322.274V212.826Z" fill="#CCCCCC"/>
<path d="M298.468 220.211V216.108H293.543V220.211H298.058H298.468Z" fill="#3F3D56"/>
<path d="M298.058 223.493H293.543V227.596H298.468V223.493H298.058Z" fill="#3F3D56"/>
<path d="M306.677 216.108H301.752V220.211H306.677V216.108Z" fill="#3F3D56"/>
<path d="M306.677 223.493H301.752V227.595H306.677V223.493Z" fill="#3F3D56"/>
<path d="M332.124 220.211V216.108H327.199V220.211H331.714H332.124Z" fill="#3F3D56"/>
<path d="M331.714 223.493H327.199V227.596H332.124V223.493H331.714Z" fill="#3F3D56"/>
<path d="M340.333 216.108H335.408V220.211H340.333V216.108Z" fill="#3F3D56"/>
<path d="M340.333 223.493H335.408V227.595H340.333V223.493Z" fill="#3F3D56"/>
<path d="M298.9 161.089H305.975C312.953 161.089 319.645 163.86 324.579 168.792C329.514 173.724 332.286 180.414 332.286 187.389H298.9V161.089Z" fill="#3F3D56"/>
<path d="M84.6146 89.6895H91.6895C98.6675 89.6895 105.36 92.4604 110.294 97.3925C115.228 102.325 118 109.014 118 115.989H84.6146V89.6895Z" fill="#3F3D56"/>
<path d="M197.71 155.734H204.785C211.763 155.734 218.455 158.505 223.389 163.437C228.323 168.369 231.095 175.059 231.095 182.034H197.71V155.734Z" fill="#3F3D56"/>
<path d="M332.286 197.235H298.9V207.082H332.286V197.235Z" fill="#3F3D56"/>
<path d="M343 238.266H3.71439V239.456H343V238.266Z" fill="#3F3D56"/>
<path d="M35.0065 191.258H33.816V238.263H35.0065V191.258Z" fill="#3F3D56"/>
<path d="M45.9932 197.249C46.069 213.685 34.5004 227.063 34.5004 227.063C34.5004 227.063 19.6854 213.507 22.7332 197.356C25.7984 181.112 35.3517 167.611 34.226 167.542C34.226 167.542 45.9174 180.812 45.9932 197.249Z" fill="#16A34A"/>
<path d="M154.054 191.258H152.864V238.263H154.054V191.258Z" fill="#3F3D56"/>
<path d="M165.041 197.249C166.114 213.65 153.548 227.063 153.548 227.063C153.548 227.063 141.857 213.792 141.781 197.356C141.705 180.919 153.274 167.542 153.274 167.542C152.146 172.047 164.173 183.978 165.041 197.249Z" fill="#16A34A"/>
<path d="M76.7101 114.851L128.421 112.323L150.113 130.422L146.278 133.883L111.927 133.11L76.7101 114.851Z" fill="#3F3D56"/>
<path d="M25.1131 198.845L22.3274 201.361L21.9881 201.665L21.2798 202.308L3.71429 201.915V181.173C3.14286 181.048 2.57143 180.929 2 180.816L3.42263 180.745L3.71429 180.989L6.43453 183.256L14.1726 189.717L22.8155 196.929L25.1131 198.845Z" fill="#3F3D56"/>
<path d="M189.805 183.276L241.516 180.747L263.208 198.846L259.373 202.307L225.023 201.534L189.805 183.276Z" fill="#3F3D56"/>
</g>
<defs>
<clipPath id="clip0_26_511">
<rect width="341" height="215" fill="white" transform="translate(2 29)"/>
</clipPath>
</defs>
</svg>
