<svg width="13" height="13" viewBox="0 0 13 13" fill="none" xmlns="http://www.w3.org/2000/svg">
<path d="M6.49996 6.49999C6.79788 6.49999 7.05291 6.39392 7.26506 6.18177C7.47722 5.96961 7.58329 5.71458 7.58329 5.41666C7.58329 5.11874 7.47722 4.86371 7.26506 4.65156C7.05291 4.4394 6.79788 4.33333 6.49996 4.33333C6.20204 4.33333 5.94701 4.4394 5.73486 4.65156C5.5227 4.86371 5.41663 5.11874 5.41663 5.41666C5.41663 5.71458 5.5227 5.96961 5.73486 6.18177C5.94701 6.39392 6.20204 6.49999 6.49996 6.49999ZM6.49996 10.4812C7.60135 9.47013 8.41836 8.55156 8.951 7.72552C9.48364 6.89947 9.74996 6.16597 9.74996 5.52499C9.74996 4.54097 9.43624 3.73524 8.80881 3.10781C8.18138 2.48038 7.41177 2.16666 6.49996 2.16666C5.58815 2.16666 4.81854 2.48038 4.19111 3.10781C3.56367 3.73524 3.24996 4.54097 3.24996 5.52499C3.24996 6.16597 3.51628 6.89947 4.04892 7.72552C4.58156 8.55156 5.39857 9.47013 6.49996 10.4812ZM6.49996 11.9167C5.04649 10.6799 3.9609 9.53107 3.24319 8.47031C2.52548 7.40954 2.16663 6.42777 2.16663 5.52499C2.16663 4.17083 2.60222 3.09201 3.4734 2.28854C4.34458 1.48506 5.35343 1.08333 6.49996 1.08333C7.64649 1.08333 8.65534 1.48506 9.52652 2.28854C10.3977 3.09201 10.8333 4.17083 10.8333 5.52499C10.8333 6.42777 10.4744 7.40954 9.75673 8.47031C9.03902 9.53107 7.95343 10.6799 6.49996 11.9167Z" fill="#5F6368"/>
</svg>
