<svg width="328" height="293" viewBox="0 0 328 293" fill="none" xmlns="http://www.w3.org/2000/svg">
<path fill-rule="evenodd" clip-rule="evenodd" d="M164.576 -81.9988C125.562 -82.0898 86.7562 -77.0636 55.654 -53.5209C19.5021 -26.1558 -19.4034 10.0975 -16.8838 55.3567C-14.4067 99.8539 34.6231 122.263 67.1374 152.756C97.8762 181.583 122.612 221.589 164.576 225.535C209.041 229.716 251.335 205.202 282.25 172.984C312.524 141.434 329.662 99.0365 327.872 55.3567C326.149 13.3016 305.209 -25.9136 272.99 -53.0138C243.235 -78.0423 203.464 -81.9081 164.576 -81.9988Z" fill="#10D624" fill-opacity="0.28"/>
<g clip-path="url(#clip0_26_512)">
<path d="M187.676 288.417L193.797 288.416L196.709 264.164L187.674 264.165L187.676 288.417Z" fill="#FFB6B6"/>
<path d="M208.649 288.274C208.84 288.604 208.941 289.668 208.941 290.052C208.941 291.23 208.01 292.186 206.863 292.186H187.905C187.122 292.186 186.487 291.534 186.487 290.73V289.919C186.487 289.919 185.549 287.483 187.48 284.48C187.48 284.48 189.88 286.831 193.466 283.148L194.523 281.181L202.178 286.93L206.421 287.467C207.349 287.584 208.172 287.448 208.649 288.274Z" fill="#2F2E41"/>
<path d="M164.446 288.417L170.568 288.416L173.48 264.164L164.445 264.165L164.446 288.417Z" fill="#FFB6B6"/>
<path d="M185.42 288.274C185.611 288.604 185.711 289.668 185.711 290.052C185.711 291.23 184.781 292.186 183.634 292.186H164.675C163.893 292.186 163.258 291.534 163.258 290.73V289.919C163.258 289.919 162.32 287.483 164.251 284.48C164.251 284.48 166.651 286.831 170.237 283.148L171.294 281.181L178.949 286.93L183.191 287.467C184.12 287.584 184.943 287.448 185.42 288.274Z" fill="#2F2E41"/>
<path d="M159.938 158.142L152.195 176.168L162.003 274.783L174.134 275.578L179.038 188.363L183.683 275.843L198.137 274.253L201.566 163.2L159.938 158.142Z" fill="#2F2E41"/>
<path d="M190.445 86.3016L174.908 83.3856L171.77 86.6084L155.808 93.4591L158.389 144.887C158.389 144.887 153.227 148.419 155.808 153.28C158.389 158.142 157.873 163.974 157.873 163.974H201.566L199.686 134.814L204.848 97.7006L192.786 91.8354L190.445 86.3016Z" fill="#2B8751"/>
<path d="M183.652 81.8809C191.188 81.8809 197.297 75.6064 197.297 67.8663C197.297 60.1263 191.188 53.8518 183.652 53.8518C176.116 53.8518 170.007 60.1263 170.007 67.8663C170.007 75.6064 176.116 81.8809 183.652 81.8809Z" fill="#FFB6B6"/>
<path d="M173.865 80.3073C172.231 80.4574 169.562 76.1624 169.681 72.0029C169.758 69.3271 167.496 68.8009 167.328 65.35C167.23 63.3393 170.237 62.7123 170.444 61.0995C170.818 58.1773 172.654 56.211 172.883 55.9719C174.861 53.9085 176.257 54.5793 178.583 52.1878C179.984 50.748 179.625 50.3535 180.568 49.7149C183.29 47.8718 188.182 49.8694 191.107 52.5602C192.119 53.4913 195.892 52.4737 197.54 55.1031C199.482 58.201 199.031 64.5189 198.199 65.3527C197.693 65.8592 196.537 64.6216 193.406 63.8273C190.507 63.092 193.242 66.7286 189.89 66.1184C185.927 65.3967 185.151 64.1583 183.667 64.9011C182.098 65.6862 180.872 68.1175 181.228 70.0287C181.405 70.9771 181.917 71.5059 181.628 71.9882C181.101 72.8686 180.496 72.0051 179.82 72.8887C179.034 73.9165 180.988 76.5531 180.62 76.8077C180.546 76.8591 180.321 76.8524 178.212 74.7691C177.37 73.9372 177.123 73.4264 176.958 73.5048C176.692 73.6317 174.943 75.3045 175.611 76.6254C176.65 78.6811 175.32 78.7452 175.611 80.1291C175.911 81.5568 174.904 80.212 173.865 80.3073Z" fill="#2F2E41"/>
<path d="M188.37 148.399C184.347 150.555 182.17 154.436 183.506 157.065C184.843 159.695 189.187 160.077 193.212 157.919C194.831 157.08 196.23 155.854 197.294 154.345L214.227 144.986L209.782 136.918L193.56 147.001C191.746 147.035 189.967 147.514 188.37 148.399Z" fill="#FFB6B6"/>
<path d="M201.751 98.2308C201.751 98.2308 206.396 95.0497 209.494 103.533C211.937 110.225 216.469 129.952 218.273 137.981C218.752 140.113 218.059 142.34 216.467 143.793L214.398 145.683L204.332 153.37L197.469 143.113L205.804 137.951L196.298 116.771L201.751 98.2308Z" fill="#2B8751"/>
<path d="M201.936 142.095V131.223C201.936 130.596 202.432 130.086 203.043 130.086H208.165C208.776 130.086 209.272 130.596 209.272 131.223V142.095C209.272 142.722 208.776 143.232 208.165 143.232H203.043C202.432 143.232 201.936 142.722 201.936 142.095Z" fill="#2B8751"/>
<path d="M275.14 124.597C283.519 124.597 290.312 117.62 290.312 109.013C290.312 100.407 283.519 93.4297 275.14 93.4297C266.76 93.4297 259.967 100.407 259.967 109.013C259.967 117.62 266.76 124.597 275.14 124.597Z" fill="#FF6884"/>
<path d="M260.156 207.836L243.011 208.078L236.137 129.358C235.97 127.447 236.571 125.515 237.786 124.057L254.645 103.828C257.005 100.996 261.017 100.485 263.979 102.641L285.095 118.007C286.817 119.26 287.885 121.22 288.023 123.384L303.437 176.569L301.369 194.306L301.39 194.331L303.833 207.217L260.156 207.836Z" fill="#E6E6E6"/>
<path d="M256.564 122.132L256.288 118.478C256.215 117.514 256.92 116.668 257.859 116.593L262.857 116.195C263.796 116.12 264.619 116.844 264.692 117.808L264.968 121.462C265.041 122.426 264.337 123.272 263.398 123.347L258.4 123.745C257.461 123.82 256.637 123.096 256.564 122.132Z" fill="#2B8751"/>
<path d="M248.142 151.335L247.121 137.816C247.048 136.852 247.753 136.006 248.692 135.932L256.091 135.342C257.03 135.267 257.853 135.991 257.926 136.955L258.948 150.474C259.02 151.438 258.316 152.284 257.377 152.358L249.978 152.948C249.039 153.023 248.215 152.299 248.142 151.335Z" fill="#3F3D56"/>
<path d="M267.259 181.645C266.362 181.684 265.585 180.996 265.489 180.079L264.127 167.043C264.069 166.487 264.265 165.95 264.665 165.569C265.064 165.189 265.601 165.03 266.137 165.131L266.519 165.204C267.278 165.348 267.851 166.002 267.911 166.793L268.89 179.757C268.926 180.236 268.775 180.697 268.465 181.057C268.168 181.4 267.764 181.606 267.321 181.641C267.3 181.643 267.28 181.644 267.259 181.645Z" fill="#3F3D56"/>
<path d="M251.598 181.08L250.573 167.522C250.501 166.565 251.173 165.739 252.103 165.641L258.815 164.937C259.746 164.849 260.587 165.538 260.687 166.496L262.112 180.191C262.161 180.666 262.025 181.131 261.727 181.498C261.429 181.866 261.01 182.089 260.546 182.126L253.433 182.693C252.494 182.768 251.671 182.044 251.598 181.08Z" fill="#3F3D56"/>
<path d="M292.048 187.176L298.046 196.38L299.469 207.156L303.687 207.095L301.277 194.386L291.702 182.744C291.06 184.183 291.191 185.86 292.048 187.176Z" fill="#CCCCCC"/>
<path d="M299.067 204.071L281.977 205.675L281.999 205.922L299.089 204.318L299.067 204.071Z" fill="#3F3D56"/>
<path d="M297.864 201.978L281.653 203.401L281.674 203.647L297.885 202.224L297.864 201.978Z" fill="#3F3D56"/>
<path d="M296.854 199.82L281.362 201.368L281.385 201.615L296.878 200.067L296.854 199.82Z" fill="#3F3D56"/>
<path d="M296.206 197.647L281.344 199.343L281.37 199.589L296.232 197.893L296.206 197.647Z" fill="#3F3D56"/>
<path d="M295.336 195.735L281.059 197.393L281.086 197.639L295.363 195.981L295.336 195.735Z" fill="#3F3D56"/>
<path d="M294.249 194.078L280.305 195.189L280.324 195.436L294.268 194.324L294.249 194.078Z" fill="#3F3D56"/>
<path d="M293.396 192.405L279.858 193.648L279.879 193.894L293.418 192.651L293.396 192.405Z" fill="#3F3D56"/>
<path d="M292.543 190.737L279.446 192.232L279.473 192.478L292.57 190.983L292.543 190.737Z" fill="#3F3D56"/>
<path d="M291.935 189.058L278.987 190.326L279.009 190.572L291.958 189.305L291.935 189.058Z" fill="#3F3D56"/>
<path d="M290.844 187.427L278.459 188.815L278.485 189.061L290.87 187.673L290.844 187.427Z" fill="#3F3D56"/>
<path d="M290.253 185.961L277.956 187.065L277.977 187.312L290.274 186.207L290.253 185.961Z" fill="#3F3D56"/>
<path d="M276.664 181.935L275.4 165.211C275.327 164.246 276.032 163.401 276.971 163.326L284.85 162.698C285.789 162.623 286.613 163.347 286.685 164.311L287.949 181.035C288.022 182 287.317 182.845 286.378 182.92L278.499 183.548C277.56 183.623 276.737 182.899 276.664 181.935Z" fill="#2B8751"/>
<path d="M260.156 207.836L246.139 208.035L246.026 208.036L245.188 196.949C245.082 195.547 246.106 194.318 247.471 194.209L261.249 193.111C262.614 193.002 263.811 194.054 263.917 195.456L264.824 207.464L264.704 207.473L260.156 207.836Z" fill="#CCCCCC"/>
<path d="M275.332 151.525L274.367 138.746C274.294 137.782 274.998 136.936 275.937 136.861L278.534 136.654C279.473 136.579 280.297 137.303 280.369 138.267L281.335 151.046C281.408 152.01 280.703 152.856 279.764 152.931L277.167 153.138C276.228 153.213 275.405 152.489 275.332 151.525Z" fill="#3F3D56"/>
<path d="M282.205 207.319L280.665 196.525L277.721 186.339L276.907 183.551C275.608 182.788 274.019 183.879 274.21 185.403L274.36 186.607L277.303 196.793L278.844 207.587" fill="#CCCCCC"/>
<path d="M109.661 209.825L92.5161 210.068L85.6424 131.347C85.4756 129.436 86.0765 127.504 87.2911 126.047L104.15 105.817C106.51 102.986 110.523 102.475 113.484 104.63L134.6 119.996C136.323 121.25 137.39 123.21 137.529 125.373L152.942 178.559L150.875 196.295L150.895 196.32L153.338 209.206L109.661 209.825Z" fill="#E6E6E6"/>
<path d="M106.07 124.121L105.794 120.467C105.721 119.503 106.426 118.658 107.365 118.583L112.363 118.184C113.302 118.109 114.125 118.833 114.198 119.798L114.474 123.451C114.547 124.416 113.842 125.261 112.903 125.336L107.905 125.735C106.966 125.809 106.143 125.086 106.07 124.121Z" fill="#2B8751"/>
<path d="M97.6481 153.324L96.6266 139.806C96.5537 138.841 97.2584 137.996 98.1974 137.921L105.597 137.331C106.536 137.256 107.359 137.98 107.432 138.945L108.453 152.463C108.526 153.427 107.821 154.273 106.882 154.348L99.4832 154.938C98.5442 155.012 97.7209 154.289 97.6481 153.324Z" fill="#3F3D56"/>
<path d="M116.765 183.635C115.868 183.674 115.09 182.986 114.994 182.069L113.633 169.033C113.575 168.476 113.771 167.939 114.17 167.559C114.57 167.178 115.107 167.019 115.642 167.12L116.024 167.193C116.784 167.338 117.356 167.991 117.416 168.782L118.396 181.746C118.432 182.225 118.281 182.687 117.971 183.046C117.674 183.389 117.27 183.595 116.827 183.631C116.806 183.632 116.785 183.634 116.765 183.635Z" fill="#3F3D56"/>
<path d="M101.103 183.069L100.079 169.512C100.007 168.555 100.678 167.728 101.608 167.631L108.321 166.926C109.252 166.839 110.093 167.527 110.193 168.485L111.617 182.18C111.667 182.656 111.53 183.12 111.232 183.488C110.935 183.856 110.515 184.079 110.051 184.116L102.939 184.683C102 184.757 101.176 184.034 101.103 183.069Z" fill="#3F3D56"/>
<path d="M141.554 189.165L147.552 198.37L148.975 209.145L153.193 209.084L150.783 196.375L141.207 184.733C140.565 186.172 140.697 187.85 141.554 189.165Z" fill="#CCCCCC"/>
<path d="M148.572 206.061L131.483 207.665L131.505 207.911L148.594 206.307L148.572 206.061Z" fill="#3F3D56"/>
<path d="M147.37 203.967L131.159 205.39L131.18 205.637L147.39 204.213L147.37 203.967Z" fill="#3F3D56"/>
<path d="M146.36 201.81L130.868 203.358L130.891 203.604L146.383 202.056L146.36 201.81Z" fill="#3F3D56"/>
<path d="M145.711 199.636L130.849 201.332L130.876 201.578L145.738 199.882L145.711 199.636Z" fill="#3F3D56"/>
<path d="M144.842 197.724L130.565 199.382L130.592 199.628L144.869 197.97L144.842 197.724Z" fill="#3F3D56"/>
<path d="M143.755 196.067L129.811 197.179L129.829 197.425L143.773 196.314L143.755 196.067Z" fill="#3F3D56"/>
<path d="M142.902 194.394L129.363 195.637L129.385 195.884L142.923 194.641L142.902 194.394Z" fill="#3F3D56"/>
<path d="M142.049 192.727L128.952 194.221L128.978 194.467L142.075 192.973L142.049 192.727Z" fill="#3F3D56"/>
<path d="M141.441 191.048L128.492 192.315L128.515 192.562L141.464 191.294L141.441 191.048Z" fill="#3F3D56"/>
<path d="M140.349 189.416L127.964 190.805L127.99 191.051L140.376 189.662L140.349 189.416Z" fill="#3F3D56"/>
<path d="M139.758 187.95L127.462 189.055L127.483 189.301L139.779 188.197L139.758 187.95Z" fill="#3F3D56"/>
<path d="M126.169 183.925L124.906 167.2C124.833 166.236 125.537 165.39 126.476 165.315L134.356 164.687C135.295 164.612 136.118 165.336 136.191 166.301L137.455 183.025C137.528 183.989 136.823 184.835 135.884 184.91L128.005 185.538C127.066 185.613 126.242 184.889 126.169 183.925Z" fill="#2B8751"/>
<path d="M109.661 209.825L95.6441 210.024L95.5311 210.026L94.6934 198.939C94.5874 197.536 95.6119 196.307 96.977 196.198L110.754 195.1C112.119 194.991 113.316 196.044 113.422 197.446L114.329 209.453L114.209 209.463L109.661 209.825Z" fill="#CCCCCC"/>
<path d="M124.838 153.514L123.872 140.735C123.799 139.771 124.504 138.925 125.443 138.851L128.04 138.644C128.979 138.569 129.802 139.292 129.875 140.257L130.841 153.036C130.914 154 130.209 154.845 129.27 154.92L126.673 155.127C125.734 155.202 124.911 154.478 124.838 153.514Z" fill="#3F3D56"/>
<path d="M131.711 209.308L130.171 198.514L127.227 188.329L126.412 185.541C125.114 184.777 123.525 185.868 123.715 187.392L123.865 188.597L126.809 198.782L128.349 209.576" fill="#CCCCCC"/>
<path d="M200.069 208.655L182.924 208.898L176.05 130.177C175.884 128.267 176.485 126.335 177.699 124.877L194.558 104.648C196.918 101.816 200.931 101.305 203.893 103.46L225.008 118.826C226.731 120.08 235.998 127.194 236.137 129.357L231.733 183.515L241.283 195.126L241.303 195.15L243.747 208.036L200.069 208.655Z" fill="#E6E6E6"/>
<path d="M196.478 122.952L196.202 119.298C196.129 118.333 196.834 117.488 197.773 117.413L202.771 117.015C203.71 116.94 204.533 117.664 204.606 118.628L204.882 122.282C204.955 123.246 204.25 124.092 203.311 124.167L198.313 124.565C197.374 124.64 196.551 123.916 196.478 122.952Z" fill="#2B8751"/>
<path d="M188.056 152.155L187.035 138.636C186.962 137.672 187.666 136.826 188.606 136.751L196.005 136.162C196.944 136.087 197.767 136.811 197.84 137.775L198.861 151.293C198.934 152.258 198.229 153.103 197.291 153.178L189.891 153.768C188.952 153.843 188.129 153.119 188.056 152.155Z" fill="#3F3D56"/>
<path d="M204.742 166.57C204.399 166.897 204.231 167.359 204.281 167.837L205.642 180.873C205.724 181.66 206.392 182.251 207.163 182.218C207.568 182.202 207.932 182.021 208.198 181.712C208.465 181.404 208.595 181.007 208.564 180.596L207.584 167.632C207.533 166.952 207.041 166.391 206.389 166.267L206.007 166.194C205.877 166.17 205.748 166.163 205.621 166.173C205.297 166.199 204.989 166.336 204.742 166.57Z" fill="#3F3D56"/>
<path d="M184.447 183.784C184.087 183.478 183.868 183.046 183.832 182.567L182.852 169.603C182.793 168.812 183.26 168.076 183.989 167.813L184.355 167.68C184.869 167.495 185.424 167.567 185.875 167.88C186.328 168.192 186.602 168.692 186.628 169.251L187.241 182.347C187.284 183.268 186.62 184.071 185.727 184.174C185.707 184.177 185.686 184.179 185.665 184.18C185.222 184.216 184.792 184.076 184.447 183.784Z" fill="#3F3D56"/>
<path d="M231.962 187.995L237.96 197.2L239.383 207.976L243.601 207.915L241.191 195.206L231.615 183.564C230.974 185.003 231.105 186.68 231.962 187.995Z" fill="#CCCCCC"/>
<path d="M238.98 204.891L221.891 206.495L221.913 206.741L239.002 205.138L238.98 204.891Z" fill="#3F3D56"/>
<path d="M237.778 202.797L221.567 204.22L221.588 204.467L237.799 203.044L237.778 202.797Z" fill="#3F3D56"/>
<path d="M236.768 200.64L221.276 202.188L221.299 202.435L236.791 200.887L236.768 200.64Z" fill="#3F3D56"/>
<path d="M236.119 198.467L221.257 200.163L221.284 200.409L236.146 198.713L236.119 198.467Z" fill="#3F3D56"/>
<path d="M235.25 196.555L220.973 198.213L221 198.459L235.277 196.801L235.25 196.555Z" fill="#3F3D56"/>
<path d="M234.163 194.898L220.219 196.009L220.238 196.256L234.181 195.144L234.163 194.898Z" fill="#3F3D56"/>
<path d="M233.31 193.225L219.771 194.468L219.793 194.714L233.331 193.471L233.31 193.225Z" fill="#3F3D56"/>
<path d="M232.457 191.557L219.36 193.052L219.386 193.298L232.483 191.803L232.457 191.557Z" fill="#3F3D56"/>
<path d="M231.849 189.878L218.9 191.146L218.923 191.392L231.872 190.124L231.849 189.878Z" fill="#3F3D56"/>
<path d="M230.757 188.247L218.372 189.635L218.398 189.881L230.784 188.493L230.757 188.247Z" fill="#3F3D56"/>
<path d="M230.166 186.781L217.87 187.885L217.891 188.131L230.187 187.027L230.166 186.781Z" fill="#3F3D56"/>
<path d="M216.577 182.755L215.314 166.03C215.241 165.066 215.946 164.22 216.885 164.146L224.764 163.517C225.703 163.443 226.526 164.166 226.599 165.131L227.863 181.855C227.936 182.82 227.231 183.665 226.292 183.74L218.413 184.368C217.474 184.443 216.65 183.719 216.577 182.755Z" fill="#2B8751"/>
<path d="M200.069 208.655L186.052 208.855L185.939 208.856L185.101 197.769C184.996 196.367 186.02 195.137 187.385 195.029L201.162 193.93C202.528 193.822 203.724 194.874 203.83 196.276L204.738 208.283L204.618 208.293L200.069 208.655Z" fill="#CCCCCC"/>
<path d="M215.246 152.344L214.28 139.566C214.207 138.601 214.912 137.756 215.851 137.681L218.448 137.474C219.387 137.399 220.21 138.123 220.283 139.087L221.249 151.866C221.322 152.83 220.617 153.676 219.678 153.751L217.081 153.958C216.142 154.033 215.319 153.309 215.246 152.344Z" fill="#3F3D56"/>
<path d="M222.119 208.139L220.579 197.345L217.635 187.159L216.82 184.371C215.522 183.608 213.933 184.698 214.123 186.223L214.273 187.427L217.217 197.613L218.757 208.406" fill="#CCCCCC"/>
<path d="M319.994 206.886L100.425 209.81L100.431 210.304L320 207.381L319.994 206.886Z" fill="#CCCCCC"/>
<path d="M173.773 134.16C179.205 134.16 183.607 129.637 183.607 124.059C183.607 118.481 179.205 113.959 173.773 113.959C168.342 113.959 163.939 118.481 163.939 124.059C163.939 129.637 168.342 134.16 173.773 134.16Z" fill="#2B8751"/>
<path d="M180.155 113.418C179.581 113.073 178.705 113.252 178.39 113.894C177.144 116.425 176.236 119.074 175.645 121.817C174.7 120.622 173.756 119.426 172.811 118.23C172.372 117.674 171.443 117.761 170.986 118.23C170.451 118.78 170.546 119.547 170.986 120.105C172.49 122.008 173.993 123.911 175.496 125.814C175.814 126.216 176.48 126.281 176.906 126.089C177.42 125.857 177.629 125.428 177.699 124.877C178.125 121.53 179.137 118.241 180.618 115.232C180.933 114.593 180.782 113.795 180.155 113.418Z" fill="white"/>
<path d="M179.184 146.217C183.598 147.299 187.719 145.838 188.389 142.952C189.06 140.067 186.025 136.851 181.609 135.769C179.851 135.312 178.012 135.294 176.245 135.717L157.486 131.374L155.69 140.459L174.373 143.776C175.764 144.972 177.413 145.81 179.184 146.217Z" fill="#FFB6B6"/>
<path d="M158.906 96.11L155.808 93.4591C155.808 93.4591 149.614 96.6402 148.581 99.2912C147.549 101.942 141.355 127.391 141.355 127.391C141.355 127.391 140.139 141.338 143.328 143.113C146.517 144.887 166.649 143.827 166.649 143.827L168.197 133.223L159.938 130.042L158.906 96.11Z" fill="#2B8751"/>
<path d="M282.435 244.612C282 243.857 280.114 244.665 279.767 243.98C279.422 243.298 281.174 242.258 282.175 239.882C282.355 239.454 283.493 236.754 282.651 235.921C281.055 234.342 273.751 240.858 271.196 238.726C270.635 238.258 270.243 237.323 268.545 235.807C267.87 235.203 267.462 234.931 267.066 235.032C266.506 235.176 266.461 235.947 265.86 237.462C264.958 239.736 264.425 239.598 263.899 241.412C263.509 242.758 263.598 243.541 263.139 243.693C262.49 243.909 261.892 242.481 261.069 242.609C260.229 242.739 259.721 244.402 259.561 245.647C259.259 247.983 260.095 249.524 260.558 251.145C261.061 252.907 261.359 255.586 260.198 259.378L248.698 292.656C251.237 285.827 258.588 267.108 261.676 260.152C262.568 258.144 263.553 256.107 265.574 255.304C267.521 254.53 270.194 254.992 273.601 254.149C273.999 254.05 275.104 253.761 275.243 253.094C275.358 252.543 274.708 252.235 274.808 251.718C274.942 251.025 276.219 251.017 277.789 250.217C278.896 249.653 279.586 248.983 280.179 248.406C280.358 248.233 283.016 245.617 282.435 244.612Z" fill="#F2F2F2"/>
<path d="M237.192 262.131C236.706 262.133 236.548 263.316 236.121 263.294C235.695 263.271 235.704 262.088 234.857 260.898C234.704 260.683 233.742 259.331 233.101 259.515C231.886 259.864 232.893 265.425 231.137 266.098C230.751 266.246 230.192 266.174 228.977 266.592C228.494 266.759 228.246 266.886 228.18 267.114C228.087 267.438 228.443 267.683 228.993 268.424C229.819 269.534 229.6 269.763 230.315 270.552C230.846 271.137 231.245 271.318 231.186 271.593C231.102 271.983 230.247 271.872 230.07 272.324C229.89 272.785 230.538 273.521 231.087 273.961C232.116 274.786 233.094 274.81 234.002 275.044C234.989 275.299 236.355 275.921 237.832 277.601L250.416 293C247.886 289.75 241.062 280.643 238.629 277.079C237.927 276.05 237.237 274.966 237.437 273.715C237.628 272.511 238.62 271.297 239.201 269.336C239.269 269.107 239.449 268.467 239.171 268.204C238.94 267.987 238.606 268.226 238.388 268.026C238.095 267.759 238.46 267.112 238.53 266.09C238.58 265.37 238.459 264.828 238.355 264.363C238.323 264.223 237.84 262.128 237.192 262.131Z" fill="#F2F2F2"/>
<path d="M246.897 264.368L246.604 261.681L246.738 261.478C247.357 260.536 247.673 259.616 247.677 258.742C247.678 258.604 247.671 258.465 247.665 258.323C247.64 257.763 247.608 257.066 247.962 256.254C248.16 255.801 248.717 254.753 249.555 254.882C249.78 254.915 249.951 255.021 250.08 255.146C250.099 255.115 250.119 255.084 250.14 255.05C250.401 254.641 250.607 254.466 250.806 254.297C250.959 254.168 251.117 254.034 251.364 253.717C251.473 253.578 251.558 253.457 251.629 253.354C251.846 253.044 252.129 252.674 252.628 252.681C253.161 252.707 253.44 253.159 253.625 253.459C253.955 253.994 254.105 254.379 254.204 254.635C254.24 254.728 254.281 254.833 254.302 254.866C254.474 255.125 255.871 254.882 256.397 254.794C257.578 254.592 258.601 254.417 259.022 255.182C259.324 255.73 259.1 256.454 258.336 257.392C258.098 257.684 257.844 257.906 257.62 258.079C257.806 258.194 257.973 258.369 258.04 258.644C258.199 259.295 257.654 259.948 256.421 260.586C256.114 260.746 255.702 260.959 255.124 261.061C254.852 261.109 254.607 261.121 254.397 261.127C254.393 261.252 254.364 261.387 254.29 261.526C254.074 261.934 253.623 262.129 252.943 262.082C252.195 262.042 251.579 261.895 251.036 261.767C250.562 261.655 250.153 261.561 249.832 261.583C249.237 261.632 248.779 262.121 248.24 262.756L246.897 264.368Z" fill="#F2F2F2"/>
<path d="M248.256 248.369L245.8 249.342L245.574 249.261C244.53 248.884 243.584 248.804 242.76 249.021C242.629 249.056 242.5 249.098 242.369 249.14C241.847 249.307 241.199 249.515 240.344 249.37C239.868 249.287 238.739 249 238.649 248.135C238.622 247.903 238.679 247.706 238.763 247.546C238.729 247.535 238.695 247.524 238.658 247.511C238.207 247.356 237.99 247.195 237.78 247.04C237.619 246.921 237.453 246.798 237.092 246.633C236.934 246.56 236.798 246.507 236.683 246.462C236.336 246.325 235.916 246.138 235.796 245.64C235.685 245.104 236.04 244.712 236.276 244.452C236.695 243.988 237.02 243.742 237.236 243.579C237.315 243.519 237.403 243.452 237.429 243.423C237.629 243.186 237.047 241.86 236.83 241.36C236.34 240.237 235.915 239.266 236.53 238.653C236.969 238.214 237.707 238.253 238.785 238.775C239.12 238.937 239.393 239.132 239.614 239.312C239.674 239.098 239.797 238.888 240.039 238.751C240.612 238.427 241.365 238.803 242.279 239.867C242.507 240.131 242.812 240.487 243.055 241.035C243.169 241.293 243.242 241.534 243.302 241.74C243.42 241.713 243.554 241.707 243.704 241.745C244.144 241.857 244.442 242.256 244.57 242.943C244.722 243.696 244.74 244.345 244.757 244.917C244.772 245.417 244.786 245.847 244.889 246.16C245.086 246.739 245.663 247.07 246.397 247.444L248.256 248.369Z" fill="#F2F2F2"/>
<path d="M246.897 240.453L246.604 237.766L246.738 237.562C247.357 236.62 247.673 235.701 247.677 234.827C247.678 234.689 247.671 234.55 247.665 234.408C247.64 233.848 247.608 233.151 247.962 232.339C248.16 231.886 248.717 230.838 249.555 230.967C249.78 231 249.951 231.106 250.08 231.231C250.099 231.2 250.119 231.168 250.14 231.135C250.401 230.726 250.607 230.551 250.806 230.382C250.959 230.252 251.117 230.119 251.364 229.802C251.473 229.663 251.558 229.541 251.629 229.439C251.846 229.129 252.129 228.759 252.628 228.766C253.161 228.791 253.44 229.244 253.625 229.544C253.955 230.079 254.105 230.464 254.204 230.72C254.24 230.813 254.281 230.918 254.302 230.95C254.474 231.21 255.871 230.967 256.397 230.879C257.578 230.677 258.601 230.502 259.022 231.267C259.324 231.815 259.1 232.539 258.336 233.477C258.098 233.769 257.844 233.99 257.62 234.164C257.806 234.279 257.973 234.454 258.04 234.729C258.199 235.38 257.654 236.033 256.421 236.671C256.114 236.831 255.702 237.043 255.124 237.146C254.852 237.194 254.607 237.206 254.397 237.212C254.393 237.337 254.364 237.472 254.29 237.61C254.074 238.019 253.623 238.214 252.943 238.167C252.195 238.127 251.579 237.98 251.036 237.852C250.562 237.74 250.153 237.645 249.832 237.668C249.237 237.717 248.779 238.206 248.24 238.84L246.897 240.453Z" fill="#F2F2F2"/>
<path d="M249.574 292.612L249.026 292.259L248.386 292.334C248.376 292.273 248.341 292.133 248.289 291.914C248.003 290.712 247.131 287.056 246.403 281.298C245.895 277.278 245.608 273.146 245.548 269.013C245.489 264.874 245.68 261.741 245.833 259.223C245.948 257.323 246.088 255.514 246.226 253.752C246.593 249.045 246.938 244.599 246.681 239.676C246.624 238.577 246.505 236.29 245.204 233.856C244.449 232.444 243.409 231.191 242.113 230.132L242.919 229.091C244.35 230.262 245.5 231.65 246.338 233.217C247.781 235.916 247.911 238.408 247.973 239.606C248.235 244.616 247.885 249.105 247.515 253.857C247.379 255.613 247.239 257.414 247.124 259.306C246.972 261.801 246.783 264.907 246.842 268.993C246.9 273.076 247.184 277.158 247.685 281.127C248.404 286.812 249.264 290.414 249.546 291.597C249.696 292.229 249.728 292.361 249.574 292.612Z" fill="#F2F2F2"/>
<path d="M239.741 232.243C239.688 232.243 239.634 232.241 239.58 232.238C238.478 232.177 237.458 231.499 236.547 230.225C236.12 229.626 235.902 228.942 235.466 227.578C235.398 227.368 235.07 226.302 234.87 224.834C234.739 223.875 234.756 223.474 234.941 223.12C235.146 222.726 235.478 222.451 235.852 222.265C235.836 222.138 235.849 222.007 235.903 221.873C236.123 221.319 236.709 221.392 237.026 221.427C237.187 221.448 237.387 221.475 237.603 221.463C237.943 221.446 238.126 221.343 238.402 221.187C238.667 221.038 238.996 220.852 239.484 220.75C240.447 220.543 241.253 220.824 241.519 220.916C242.918 221.395 243.608 222.512 244.406 223.805C244.566 224.065 245.112 225.009 245.473 226.304C245.733 227.238 245.696 227.654 245.618 227.962C245.459 228.597 245.083 228.96 244.129 229.762C243.132 230.601 242.632 231.022 242.202 231.277C241.202 231.87 240.574 232.243 239.741 232.243Z" fill="#F2F2F2"/>
<path d="M294.956 292.008C294.956 292.254 294.762 292.453 294.523 292.453H74.4336C74.1941 292.453 74 292.254 74 292.008C74 291.762 74.1941 291.562 74.4336 291.562H294.523C294.762 291.562 294.956 291.762 294.956 292.008Z" fill="#E6E6E6"/>
</g>
<defs>
<clipPath id="clip0_26_512">
<rect width="246" height="244" fill="white" transform="translate(74 49)"/>
</clipPath>
</defs>
</svg>
