<svg width="34" height="34" viewBox="0 0 34 34" fill="none" xmlns="http://www.w3.org/2000/svg">
<path d="M34 17C34 26.3888 26.3888 34 17 34C7.61116 34 0 26.3888 0 17C0 7.61116 7.61116 0 17 0C26.3888 0 34 7.61116 34 17Z" fill="#16A34A"/>
<path d="M12.5 18.5H18.5V17H12.5V18.5ZM12.5 16.25H21.5V14.75H12.5V16.25ZM12.5 14H21.5V12.5H12.5V14ZM9.5 24.5V11C9.5 10.5875 9.64687 10.2344 9.94063 9.94063C10.2344 9.64687 10.5875 9.5 11 9.5H23C23.4125 9.5 23.7656 9.64687 24.0594 9.94063C24.3531 10.2344 24.5 10.5875 24.5 11V20C24.5 20.4125 24.3531 20.7656 24.0594 21.0594C23.7656 21.3531 23.4125 21.5 23 21.5H12.5L9.5 24.5ZM11.8625 20H23V11H11V20.8438L11.8625 20Z" fill="white"/>
</svg>
